<mxfile host="app.diagrams.net" agent="Mozilla/5.0 (Windows NT 10.0; Win64; x64) AppleWebKit/537.36 (KHTML, like Gecko) Chrome/139.0.0.0 Safari/537.36" version="28.1.2" pages="2">
  <diagram name="Page-1" id="qwfzI6SrudLOj4gur3_8">
    <mxGraphModel dx="946" dy="597" grid="1" gridSize="10" guides="1" tooltips="1" connect="1" arrows="1" fold="1" page="1" pageScale="1" pageWidth="850" pageHeight="1100" math="0" shadow="0">
      <root>
        <mxCell id="0" />
        <mxCell id="1" parent="0" />
        <mxCell id="_Jdm6o6sf4ZndopJgjNj-1" value="Start" style="rounded=1;whiteSpace=wrap;html=1;" vertex="1" parent="1">
          <mxGeometry x="50" y="240" width="120" height="60" as="geometry" />
        </mxCell>
        <mxCell id="_Jdm6o6sf4ZndopJgjNj-3" value="" style="endArrow=none;html=1;rounded=0;exitX=1;exitY=0.5;exitDx=0;exitDy=0;" edge="1" parent="1" source="_Jdm6o6sf4ZndopJgjNj-1" target="_Jdm6o6sf4ZndopJgjNj-4">
          <mxGeometry width="50" height="50" relative="1" as="geometry">
            <mxPoint x="170" y="330" as="sourcePoint" />
            <mxPoint x="280" y="270" as="targetPoint" />
          </mxGeometry>
        </mxCell>
        <mxCell id="_Jdm6o6sf4ZndopJgjNj-4" value="Check altitude" style="rounded=0;whiteSpace=wrap;html=1;" vertex="1" parent="1">
          <mxGeometry x="220" y="240" width="120" height="60" as="geometry" />
        </mxCell>
        <mxCell id="_Jdm6o6sf4ZndopJgjNj-5" value="" style="endArrow=none;html=1;rounded=0;exitX=1.021;exitY=0.617;exitDx=0;exitDy=0;exitPerimeter=0;" edge="1" parent="1" source="_Jdm6o6sf4ZndopJgjNj-4" target="_Jdm6o6sf4ZndopJgjNj-6">
          <mxGeometry width="50" height="50" relative="1" as="geometry">
            <mxPoint x="270" y="330" as="sourcePoint" />
            <mxPoint x="439" y="277" as="targetPoint" />
          </mxGeometry>
        </mxCell>
        <mxCell id="_Jdm6o6sf4ZndopJgjNj-6" value="Is altitude &amp;lt;100?" style="rhombus;whiteSpace=wrap;html=1;" vertex="1" parent="1">
          <mxGeometry x="390" y="240" width="80" height="80" as="geometry" />
        </mxCell>
        <mxCell id="_Jdm6o6sf4ZndopJgjNj-11" value="No" style="text;html=1;align=center;verticalAlign=middle;resizable=0;points=[];autosize=1;strokeColor=none;fillColor=none;" vertex="1" parent="1">
          <mxGeometry x="470" y="328" width="40" height="30" as="geometry" />
        </mxCell>
        <mxCell id="_Jdm6o6sf4ZndopJgjNj-13" value="Turn off thruster" style="rounded=0;whiteSpace=wrap;html=1;" vertex="1" parent="1">
          <mxGeometry x="515" y="110" width="120" height="60" as="geometry" />
        </mxCell>
        <mxCell id="_Jdm6o6sf4ZndopJgjNj-14" value="Is altitude &amp;lt;=0" style="rhombus;whiteSpace=wrap;html=1;" vertex="1" parent="1">
          <mxGeometry x="540" y="300" width="70" height="80" as="geometry" />
        </mxCell>
        <mxCell id="_Jdm6o6sf4ZndopJgjNj-15" value="" style="endArrow=none;html=1;rounded=0;exitX=1;exitY=0.5;exitDx=0;exitDy=0;" edge="1" parent="1" source="_Jdm6o6sf4ZndopJgjNj-14" target="_Jdm6o6sf4ZndopJgjNj-16">
          <mxGeometry width="50" height="50" relative="1" as="geometry">
            <mxPoint x="530" y="310" as="sourcePoint" />
            <mxPoint x="697" y="340" as="targetPoint" />
          </mxGeometry>
        </mxCell>
        <mxCell id="_Jdm6o6sf4ZndopJgjNj-16" value="Turn on thruster" style="rounded=0;whiteSpace=wrap;html=1;" vertex="1" parent="1">
          <mxGeometry x="637" y="310" width="120" height="60" as="geometry" />
        </mxCell>
        <mxCell id="_Jdm6o6sf4ZndopJgjNj-17" value="No" style="text;html=1;align=center;verticalAlign=middle;resizable=0;points=[];autosize=1;strokeColor=none;fillColor=none;" vertex="1" parent="1">
          <mxGeometry x="600" y="308" width="40" height="30" as="geometry" />
        </mxCell>
        <mxCell id="_Jdm6o6sf4ZndopJgjNj-19" value="Yes" style="text;html=1;align=center;verticalAlign=middle;resizable=0;points=[];autosize=1;strokeColor=none;fillColor=none;" vertex="1" parent="1">
          <mxGeometry x="610" y="240" width="40" height="30" as="geometry" />
        </mxCell>
        <mxCell id="_Jdm6o6sf4ZndopJgjNj-22" value="" style="endArrow=classic;html=1;rounded=0;exitX=0.5;exitY=0;exitDx=0;exitDy=0;entryX=0.5;entryY=0;entryDx=0;entryDy=0;" edge="1" parent="1" source="_Jdm6o6sf4ZndopJgjNj-13" target="_Jdm6o6sf4ZndopJgjNj-4">
          <mxGeometry width="50" height="50" relative="1" as="geometry">
            <mxPoint x="450" y="360" as="sourcePoint" />
            <mxPoint x="370" y="200" as="targetPoint" />
            <Array as="points">
              <mxPoint x="380" y="150" />
            </Array>
          </mxGeometry>
        </mxCell>
        <mxCell id="_Jdm6o6sf4ZndopJgjNj-24" value="" style="endArrow=classic;html=1;rounded=0;exitX=1;exitY=1;exitDx=0;exitDy=0;entryX=0;entryY=0.5;entryDx=0;entryDy=0;" edge="1" parent="1" source="_Jdm6o6sf4ZndopJgjNj-6" target="_Jdm6o6sf4ZndopJgjNj-14">
          <mxGeometry width="50" height="50" relative="1" as="geometry">
            <mxPoint x="450" y="360" as="sourcePoint" />
            <mxPoint x="500" y="310" as="targetPoint" />
          </mxGeometry>
        </mxCell>
        <mxCell id="_Jdm6o6sf4ZndopJgjNj-25" value="" style="endArrow=classic;html=1;rounded=0;exitX=0.5;exitY=0;exitDx=0;exitDy=0;" edge="1" parent="1" source="_Jdm6o6sf4ZndopJgjNj-14">
          <mxGeometry width="50" height="50" relative="1" as="geometry">
            <mxPoint x="450" y="360" as="sourcePoint" />
            <mxPoint x="710" y="240" as="targetPoint" />
          </mxGeometry>
        </mxCell>
        <mxCell id="_Jdm6o6sf4ZndopJgjNj-26" value="Turn off thruster" style="rounded=0;whiteSpace=wrap;html=1;" vertex="1" parent="1">
          <mxGeometry x="710" y="210" width="120" height="60" as="geometry" />
        </mxCell>
        <mxCell id="_Jdm6o6sf4ZndopJgjNj-27" value="" style="endArrow=classic;html=1;rounded=0;entryX=0.5;entryY=1;entryDx=0;entryDy=0;exitX=0.5;exitY=1;exitDx=0;exitDy=0;" edge="1" parent="1" source="_Jdm6o6sf4ZndopJgjNj-16" target="_Jdm6o6sf4ZndopJgjNj-4">
          <mxGeometry width="50" height="50" relative="1" as="geometry">
            <mxPoint x="450" y="360" as="sourcePoint" />
            <mxPoint x="500" y="310" as="targetPoint" />
            <Array as="points">
              <mxPoint x="490" y="420" />
            </Array>
          </mxGeometry>
        </mxCell>
        <mxCell id="_Jdm6o6sf4ZndopJgjNj-28" value="" style="endArrow=classic;html=1;rounded=0;exitX=0.75;exitY=1;exitDx=0;exitDy=0;" edge="1" parent="1" source="_Jdm6o6sf4ZndopJgjNj-26" target="_Jdm6o6sf4ZndopJgjNj-29">
          <mxGeometry width="50" height="50" relative="1" as="geometry">
            <mxPoint x="700" y="360" as="sourcePoint" />
            <mxPoint x="790" y="460" as="targetPoint" />
          </mxGeometry>
        </mxCell>
        <mxCell id="_Jdm6o6sf4ZndopJgjNj-29" value="End" style="rounded=1;whiteSpace=wrap;html=1;" vertex="1" parent="1">
          <mxGeometry x="730" y="430" width="120" height="60" as="geometry" />
        </mxCell>
        <mxCell id="muohrl3Lj4gqCINbXqHm-1" value="" style="endArrow=classic;html=1;rounded=0;exitX=1;exitY=0;exitDx=0;exitDy=0;entryX=0;entryY=0.5;entryDx=0;entryDy=0;" edge="1" parent="1" source="_Jdm6o6sf4ZndopJgjNj-6" target="_Jdm6o6sf4ZndopJgjNj-13">
          <mxGeometry width="50" height="50" relative="1" as="geometry">
            <mxPoint x="450" y="260" as="sourcePoint" />
            <mxPoint x="515" y="140" as="targetPoint" />
          </mxGeometry>
        </mxCell>
        <mxCell id="_Jdm6o6sf4ZndopJgjNj-9" value="Yes" style="text;html=1;align=center;verticalAlign=middle;resizable=0;points=[];autosize=1;strokeColor=none;fillColor=none;" vertex="1" parent="1">
          <mxGeometry x="470" y="210" width="40" height="30" as="geometry" />
        </mxCell>
      </root>
    </mxGraphModel>
  </diagram>
  <diagram id="cWjEKFiNdds5MoKbDEwM" name="Page-2">
    <mxGraphModel dx="946" dy="2797" grid="1" gridSize="10" guides="1" tooltips="1" connect="1" arrows="1" fold="1" page="1" pageScale="1" pageWidth="850" pageHeight="1100" math="0" shadow="0">
      <root>
        <mxCell id="0" />
        <mxCell id="1" parent="0" />
        <mxCell id="snotxHlkxuyZRY1iBwpA-1" value="Start" style="rounded=1;whiteSpace=wrap;html=1;" vertex="1" parent="1">
          <mxGeometry x="300" y="-1300" width="120" height="60" as="geometry" />
        </mxCell>
        <mxCell id="snotxHlkxuyZRY1iBwpA-5" value="" style="endArrow=classic;html=1;rounded=0;exitX=0.5;exitY=1;exitDx=0;exitDy=0;" edge="1" parent="1" source="snotxHlkxuyZRY1iBwpA-1" target="snotxHlkxuyZRY1iBwpA-6">
          <mxGeometry width="50" height="50" relative="1" as="geometry">
            <mxPoint x="420" y="-260" as="sourcePoint" />
            <mxPoint x="360" y="-410" as="targetPoint" />
          </mxGeometry>
        </mxCell>
        <mxCell id="snotxHlkxuyZRY1iBwpA-6" value="Check package weight" style="rounded=0;whiteSpace=wrap;html=1;" vertex="1" parent="1">
          <mxGeometry x="300" y="-1130" width="120" height="60" as="geometry" />
        </mxCell>
        <mxCell id="snotxHlkxuyZRY1iBwpA-7" value="" style="endArrow=classic;html=1;rounded=0;exitX=0.5;exitY=1;exitDx=0;exitDy=0;" edge="1" parent="1" source="snotxHlkxuyZRY1iBwpA-6" target="snotxHlkxuyZRY1iBwpA-8">
          <mxGeometry width="50" height="50" relative="1" as="geometry">
            <mxPoint x="420" y="-260" as="sourcePoint" />
            <mxPoint x="360" y="-290" as="targetPoint" />
          </mxGeometry>
        </mxCell>
        <mxCell id="snotxHlkxuyZRY1iBwpA-8" value="Check number of motors" style="rounded=0;whiteSpace=wrap;html=1;" vertex="1" parent="1">
          <mxGeometry x="300" y="-950" width="120" height="60" as="geometry" />
        </mxCell>
        <mxCell id="9Jv_sXARX8Ip1m73qI6Y-1" value="is weight of package divided by motors &amp;lt;=5.6 kg?" style="rhombus;whiteSpace=wrap;html=1;" vertex="1" parent="1">
          <mxGeometry x="285" y="-810" width="150" height="150" as="geometry" />
        </mxCell>
        <mxCell id="9Jv_sXARX8Ip1m73qI6Y-2" value="" style="endArrow=classic;html=1;rounded=0;entryX=0.5;entryY=0;entryDx=0;entryDy=0;exitX=0.5;exitY=1;exitDx=0;exitDy=0;" edge="1" parent="1" source="snotxHlkxuyZRY1iBwpA-8" target="9Jv_sXARX8Ip1m73qI6Y-1">
          <mxGeometry width="50" height="50" relative="1" as="geometry">
            <mxPoint x="340" y="-90" as="sourcePoint" />
            <mxPoint x="390" y="-140" as="targetPoint" />
          </mxGeometry>
        </mxCell>
        <mxCell id="9Jv_sXARX8Ip1m73qI6Y-3" value="" style="endArrow=classic;html=1;rounded=0;exitX=1;exitY=1;exitDx=0;exitDy=0;" edge="1" parent="1" source="9Jv_sXARX8Ip1m73qI6Y-1">
          <mxGeometry width="50" height="50" relative="1" as="geometry">
            <mxPoint x="340" y="-690" as="sourcePoint" />
            <mxPoint x="480" y="-590" as="targetPoint" />
          </mxGeometry>
        </mxCell>
        <mxCell id="9Jv_sXARX8Ip1m73qI6Y-4" value="yes" style="text;html=1;align=center;verticalAlign=middle;resizable=0;points=[];autosize=1;strokeColor=none;fillColor=none;" vertex="1" parent="1">
          <mxGeometry x="450" y="-682" width="40" height="30" as="geometry" />
        </mxCell>
        <mxCell id="9Jv_sXARX8Ip1m73qI6Y-6" value="" style="endArrow=classic;html=1;rounded=0;exitX=0;exitY=1;exitDx=0;exitDy=0;" edge="1" parent="1" source="9Jv_sXARX8Ip1m73qI6Y-1">
          <mxGeometry width="50" height="50" relative="1" as="geometry">
            <mxPoint x="340" y="-690" as="sourcePoint" />
            <mxPoint x="230" y="-590" as="targetPoint" />
          </mxGeometry>
        </mxCell>
        <mxCell id="9Jv_sXARX8Ip1m73qI6Y-7" value="no" style="text;html=1;align=center;verticalAlign=middle;resizable=0;points=[];autosize=1;strokeColor=none;fillColor=none;" vertex="1" parent="1">
          <mxGeometry x="210" y="-662" width="40" height="30" as="geometry" />
        </mxCell>
        <mxCell id="9Jv_sXARX8Ip1m73qI6Y-8" value="The conveyor belt can carry the packages" style="rounded=0;whiteSpace=wrap;html=1;" vertex="1" parent="1">
          <mxGeometry x="170" y="-590" width="120" height="60" as="geometry" />
        </mxCell>
        <mxCell id="9Jv_sXARX8Ip1m73qI6Y-9" value="The conveyorbelt can not carry the packages" style="rounded=0;whiteSpace=wrap;html=1;" vertex="1" parent="1">
          <mxGeometry x="425" y="-590" width="120" height="60" as="geometry" />
        </mxCell>
      </root>
    </mxGraphModel>
  </diagram>
</mxfile>
